<svg width="223" height="40" viewBox="0 0 223 40" fill="none" xmlns="http://www.w3.org/2000/svg">
<path d="M12.3288 0L22.663 8.82887C23.2765 9.35302 23.6301 10.1222 23.6301 10.9323V17.5862L13.296 8.75734C12.6824 8.23319 12.3288 7.464 12.3288 6.65386V0Z" fill="#7B19D8"></path>
<path d="M12.3288 40L22.663 31.1711C23.2765 30.647 23.6301 29.8778 23.6301 29.0677V22.4138L13.296 31.2427C12.6824 31.7668 12.3288 32.536 12.3288 33.3461V40Z" fill="#7B19D8"></path>
<path d="M0 9.31034L10.1936 17.9705C10.6878 18.3904 11.3137 18.6207 11.9603 18.6207H20.181L10.0125 9.96253C9.51795 9.54141 8.89118 9.31034 8.24346 9.31034H0Z" fill="#7B19D8"></path>
<path d="M0 30.6897L10.1309 22.0345C10.626 21.6115 11.2542 21.3793 11.9034 21.3793H20.2055L10.0119 30.0394C9.51769 30.4593 8.89185 30.6897 8.24517 30.6897H0Z" fill="#7B19D8"></path>
<path d="M37.6712 0L27.337 8.82887C26.7235 9.35302 26.3699 10.1222 26.3699 10.9323V17.5862L36.704 8.75734C37.3176 8.23319 37.6712 7.464 37.6712 6.65386V0Z" fill="#7B19D8"></path>
<path d="M37.6712 40L27.337 31.1711C26.7235 30.647 26.3699 29.8778 26.3699 29.0677V22.4138L36.704 31.2427C37.3176 31.7668 37.6712 32.536 37.6712 33.3461V40Z" fill="#7B19D8"></path>
<path d="M50 9.31034L39.8064 17.9705C39.3122 18.3904 38.6863 18.6207 38.0397 18.6207H29.819L39.9875 9.96253C40.4821 9.54141 41.1088 9.31034 41.7565 9.31034H50Z" fill="#7B19D8"></path>
<path d="M50 30.6897L39.8691 22.0345C39.374 21.6115 38.7458 21.3793 38.0966 21.3793H29.7945L39.9881 30.0394C40.4823 30.4593 41.1081 30.6897 41.7548 30.6897H50Z" fill="#7B19D8"></path>
<path d="M132.775 10.6686C132.114 10.6686 131.56 10.4448 131.112 9.99709C130.664 9.54942 130.441 8.99516 130.441 8.3343C130.441 7.67345 130.664 7.11919 131.112 6.67151C131.56 6.22384 132.114 6 132.775 6C133.415 6 133.959 6.22384 134.406 6.67151C134.854 7.11919 135.078 7.67345 135.078 8.3343C135.078 8.99516 134.854 9.54942 134.406 9.99709C133.959 10.4448 133.415 10.6686 132.775 10.6686Z" fill="#320C55"></path>
<path d="M134.566 13.0029V30.6221H130.92V13.0029H134.566Z" fill="#320C55"></path>
<path fill-rule="evenodd" clip-rule="evenodd" d="M144.407 13.5465C143.341 14.1008 142.498 14.783 141.88 15.593V13.0029H138.234V39H141.88V28.064C142.541 28.874 143.394 29.5562 144.439 30.1105C145.483 30.6434 146.678 30.9099 148.021 30.9099C149.556 30.9099 150.953 30.5262 152.211 29.7587C153.49 28.97 154.492 27.8828 155.217 26.4971C155.942 25.0901 156.304 23.5019 156.304 21.7326C156.304 19.9632 155.942 18.3963 155.217 17.032C154.492 15.6676 153.49 14.6124 152.211 13.8663C150.953 13.0988 149.556 12.7151 148.021 12.7151C146.678 12.7151 145.473 12.9923 144.407 13.5465ZM151.827 18.5988C152.339 19.4729 152.594 20.5174 152.594 21.7326C152.594 22.9477 152.339 24.0136 151.827 24.9302C151.336 25.8469 150.675 26.5504 149.844 27.0407C149.034 27.5097 148.159 27.7442 147.221 27.7442C146.304 27.7442 145.43 27.5097 144.599 27.0407C143.788 26.5717 143.127 25.8895 142.616 24.9942C142.125 24.0775 141.88 23.0116 141.88 21.7965C141.88 20.5814 142.125 19.5262 142.616 18.6308C143.127 17.7355 143.788 17.0533 144.599 16.5843C145.43 16.1153 146.304 15.8808 147.221 15.8808C148.159 15.8808 149.034 16.1153 149.844 16.5843C150.675 17.032 151.336 17.7035 151.827 18.5988Z" fill="#320C55"></path>
<path d="M165.187 30.9099C163.801 30.9099 162.554 30.6647 161.445 30.1744C160.358 29.6628 159.494 28.9806 158.855 28.1279C158.215 27.2539 157.874 26.2839 157.831 25.218H161.605C161.669 25.9641 162.021 26.593 162.661 27.1047C163.322 27.595 164.143 27.8401 165.123 27.8401C166.147 27.8401 166.936 27.6483 167.49 27.2645C168.066 26.8595 168.354 26.3479 168.354 25.7297C168.354 25.0688 168.034 24.5785 167.394 24.2587C166.776 23.939 165.784 23.5872 164.42 23.2035C163.098 22.8411 162.021 22.4893 161.189 22.1483C160.358 21.8072 159.633 21.2849 159.015 20.5814C158.418 19.8779 158.119 18.9506 158.119 17.7994C158.119 16.8614 158.396 16.0087 158.951 15.2413C159.505 14.4525 160.294 13.8343 161.317 13.3866C162.362 12.939 163.556 12.7151 164.899 12.7151C166.904 12.7151 168.514 13.2267 169.729 14.25C170.966 15.2519 171.627 16.6269 171.712 18.375H168.066C168.002 17.5862 167.682 16.9574 167.106 16.4884C166.531 16.0194 165.752 15.7849 164.772 15.7849C163.812 15.7849 163.076 15.9661 162.565 16.3285C162.053 16.6909 161.797 17.1705 161.797 17.7674C161.797 18.2364 161.968 18.6308 162.309 18.9506C162.65 19.2704 163.066 19.5262 163.556 19.718C164.047 19.8886 164.772 20.1124 165.731 20.3895C167.01 20.7306 168.055 21.0824 168.865 21.4448C169.697 21.7859 170.411 22.2975 171.008 22.9797C171.605 23.6618 171.914 24.5678 171.936 25.6977C171.936 26.6996 171.659 27.595 171.104 28.3837C170.55 29.1725 169.761 29.7907 168.737 30.2384C167.735 30.686 166.552 30.9099 165.187 30.9099Z" fill="#320C55"></path>
<path d="M219.45 13.5785C218.362 13.0029 217.126 12.7151 215.74 12.7151C214.439 12.7151 213.224 13.0349 212.094 13.6744C210.964 14.2926 210.132 15.1347 209.599 16.2006C209.002 15.0707 208.149 14.2074 207.04 13.6105C205.932 13.0136 204.674 12.7151 203.266 12.7151C202.222 12.7151 201.241 12.9176 200.324 13.3227C199.407 13.7277 198.65 14.2926 198.053 15.0174V13.0029H194.407V30.6221H198.053V20.7733C198.053 19.1957 198.448 17.9913 199.236 17.1599C200.047 16.3072 201.134 15.8808 202.499 15.8808C203.863 15.8808 204.94 16.3072 205.729 17.1599C206.518 17.9913 206.912 19.1957 206.912 20.7733V30.6221H210.527V20.7733C210.527 19.1957 210.921 17.9913 211.71 17.1599C212.52 16.3072 213.608 15.8808 214.972 15.8808C216.337 15.8808 217.414 16.3072 218.203 17.1599C218.991 17.9913 219.386 19.1957 219.386 20.7733V30.6221H223V20.2297C223 18.6308 222.68 17.2665 222.041 16.1366C221.422 15.0068 220.559 14.1541 219.45 13.5785Z" fill="#320C55"></path>
<path d="M190.716 30.6221V13.0029H187.07V22.8198C187.07 24.3973 186.664 25.6124 185.854 26.4651C185.065 27.2965 183.989 27.7122 182.624 27.7122C181.259 27.7122 180.183 27.2965 179.394 26.4651C178.605 25.6124 178.21 24.3973 178.21 22.8198V13.0029H174.596V23.3634C174.596 24.9622 174.905 26.3265 175.524 27.4564C176.163 28.5862 177.027 29.4389 178.114 30.0145C179.223 30.5901 180.47 30.8779 181.856 30.8779C182.901 30.8779 183.882 30.6754 184.799 30.2703C185.737 29.844 186.494 29.2684 187.07 28.5436V30.6221H190.716Z" fill="#320C55"></path>
<path fill-rule="evenodd" clip-rule="evenodd" d="M114.779 29.7907C116.122 30.5368 117.625 30.9099 119.288 30.9099C120.973 30.9099 122.508 30.5368 123.894 29.7907C125.301 29.0233 126.41 27.9467 127.22 26.561C128.03 25.1754 128.435 23.5872 128.435 21.7965C128.435 20.0058 128.041 18.4176 127.252 17.032C126.463 15.6463 125.386 14.5804 124.022 13.8343C122.657 13.0882 121.133 12.7151 119.448 12.7151C117.764 12.7151 116.239 13.0882 114.874 13.8343C113.51 14.5804 112.433 15.6463 111.644 17.032C110.855 18.4176 110.461 20.0058 110.461 21.7965C110.461 23.6085 110.845 25.2074 111.612 26.593C112.38 27.9574 113.435 29.0233 114.779 29.7907ZM121.911 27.0727C121.101 27.5203 120.226 27.7442 119.288 27.7442C117.817 27.7442 116.591 27.2326 115.61 26.2093C114.651 25.1647 114.171 23.6938 114.171 21.7965C114.171 20.5174 114.405 19.4409 114.874 18.5669C115.344 17.6715 115.973 17 116.761 16.5523C117.572 16.1047 118.446 15.8808 119.384 15.8808C120.322 15.8808 121.196 16.1047 122.007 16.5523C122.817 17 123.467 17.6715 123.958 18.5669C124.448 19.4409 124.693 20.5174 124.693 21.7965C124.693 23.0756 124.437 24.1628 123.926 25.0581C123.414 25.9535 122.742 26.625 121.911 27.0727Z" fill="#320C55"></path>
<path fill-rule="evenodd" clip-rule="evenodd" d="M95.5765 29.8314C95.5518 29.818 95.527 29.8044 95.5024 29.7907C94.1591 29.0233 93.1036 27.9574 92.336 26.593C91.5684 25.2074 91.1846 23.6085 91.1846 21.7965C91.1846 20.0058 91.5791 18.4176 92.368 17.032C93.1569 15.6463 94.2337 14.5804 95.5983 13.8343C96.963 13.0882 98.4875 12.7151 100.172 12.7151C101.856 12.7151 103.381 13.0882 104.746 13.8343C106.11 14.5804 107.187 15.6463 107.976 17.032C108.765 18.4176 109.159 20.0058 109.159 21.7965C109.159 23.5872 108.754 25.1754 107.944 26.561C107.134 27.9467 106.025 29.0233 104.618 29.7907C103.426 30.4323 102.124 30.7981 100.711 30.8879C102.442 31.6797 105.075 32.319 106.553 32.6779C107.186 32.8316 107.607 32.9338 107.656 32.9747L107.658 32.9752V36.6231H94.3745V32.9752H102.029C100.082 32.5355 97.4373 31.0922 95.5765 29.8314ZM100.012 27.7442C100.95 27.7442 101.824 27.5203 102.635 27.0727C103.466 26.625 104.138 25.9535 104.65 25.0581C105.161 24.1628 105.417 23.0756 105.417 21.7965C105.417 20.5174 105.172 19.4409 104.682 18.5669C104.191 17.6715 103.541 17 102.731 16.5523C101.92 16.1047 101.046 15.8808 100.108 15.8808C99.1698 15.8808 98.2956 16.1047 97.4853 16.5523C96.6964 17 96.0674 17.6715 95.5983 18.5669C95.1292 19.4409 94.8947 20.5174 94.8947 21.7965C94.8947 23.6938 95.3744 25.1647 96.3339 26.2093C97.3148 27.2326 98.5408 27.7442 100.012 27.7442Z" fill="#320C55"></path>
<path fill-rule="evenodd" clip-rule="evenodd" d="M76.2262 29.7907C77.5695 30.5368 79.0727 30.9099 80.7359 30.9099C82.4203 30.9099 83.9555 30.5368 85.3415 29.7907C86.7487 29.0233 87.8575 27.9467 88.6677 26.561C89.478 25.1754 89.8831 23.5872 89.8831 21.7965C89.8831 20.0058 89.4886 18.4176 88.6997 17.032C87.9108 15.6463 86.834 14.5804 85.4694 13.8343C84.1048 13.0882 82.5802 12.7151 80.8958 12.7151C79.2113 12.7151 77.6868 13.0882 76.3222 13.8343C74.9576 14.5804 73.8808 15.6463 73.0919 17.032C72.303 18.4176 71.9085 20.0058 71.9085 21.7965C71.9085 23.6085 72.2923 25.2074 73.0599 26.593C73.8275 27.9574 74.8829 29.0233 76.2262 29.7907ZM83.3585 27.0727C82.5483 27.5203 81.674 27.7442 80.7359 27.7442C79.2646 27.7442 78.0386 27.2326 77.0578 26.2093C76.0983 25.1647 75.6186 23.6938 75.6186 21.7965C75.6186 20.5174 75.8531 19.4409 76.3222 18.5669C76.7913 17.6715 77.4203 17 78.2092 16.5523C79.0194 16.1047 79.8936 15.8808 80.8318 15.8808C81.77 15.8808 82.6442 16.1047 83.4544 16.5523C84.2647 17 84.915 17.6715 85.4054 18.5669C85.8958 19.4409 86.141 20.5174 86.141 21.7965C86.141 23.0756 85.8852 24.1628 85.3734 25.0581C84.8617 25.9535 84.1901 26.625 83.3585 27.0727Z" fill="#320C55"></path>
<path d="M63.6461 27.6802H71.1621V30.6221H60V8.39824H63.6461V27.6802Z" fill="#320C55"></path>
</svg>